<mxfile host="app.diagrams.net" agent="Mozilla/5.0 (Windows NT 10.0; Win64; x64) AppleWebKit/537.36 (KHTML, like Gecko) Chrome/140.0.0.0 Safari/537.36" version="28.1.1">
  <diagram name="Page-1" id="IHHb8pci-lk_S4eJug3x">
    <mxGraphModel dx="2038" dy="719" grid="1" gridSize="10" guides="1" tooltips="1" connect="1" arrows="1" fold="1" page="1" pageScale="1" pageWidth="850" pageHeight="1100" math="0" shadow="0">
      <root>
        <mxCell id="0" />
        <mxCell id="1" parent="0" />
        <mxCell id="7072GLtVEWYtxOqUc4yx-1" value="Client Environment" style="swimlane;whiteSpace=wrap;html=1;" vertex="1" parent="1">
          <mxGeometry x="560" y="320" width="240" height="340" as="geometry" />
        </mxCell>
        <mxCell id="7072GLtVEWYtxOqUc4yx-14" style="edgeStyle=orthogonalEdgeStyle;rounded=0;orthogonalLoop=1;jettySize=auto;html=1;entryX=0.5;entryY=0;entryDx=0;entryDy=0;" edge="1" parent="7072GLtVEWYtxOqUc4yx-1" target="7072GLtVEWYtxOqUc4yx-4">
          <mxGeometry relative="1" as="geometry">
            <mxPoint x="70" y="80" as="sourcePoint" />
          </mxGeometry>
        </mxCell>
        <mxCell id="7072GLtVEWYtxOqUc4yx-3" value="Read&lt;br&gt;IAM" style="shape=umlActor;verticalLabelPosition=bottom;verticalAlign=top;html=1;outlineConnect=0;" vertex="1" parent="7072GLtVEWYtxOqUc4yx-1">
          <mxGeometry x="20" y="40" width="50" height="80" as="geometry" />
        </mxCell>
        <mxCell id="7072GLtVEWYtxOqUc4yx-4" value="Workload&lt;div&gt;(VMs, Serverless, Secrets, VPCs, Subnets, etc.&lt;/div&gt;" style="shape=hexagon;perimeter=hexagonPerimeter2;whiteSpace=wrap;html=1;fixedSize=1;" vertex="1" parent="7072GLtVEWYtxOqUc4yx-1">
          <mxGeometry x="110" y="110" width="120" height="120" as="geometry" />
        </mxCell>
        <mxCell id="7072GLtVEWYtxOqUc4yx-25" style="edgeStyle=orthogonalEdgeStyle;rounded=0;orthogonalLoop=1;jettySize=auto;html=1;exitX=0.5;exitY=1;exitDx=0;exitDy=0;entryX=0.625;entryY=1;entryDx=0;entryDy=0;" edge="1" parent="7072GLtVEWYtxOqUc4yx-1" source="7072GLtVEWYtxOqUc4yx-4" target="7072GLtVEWYtxOqUc4yx-4">
          <mxGeometry relative="1" as="geometry" />
        </mxCell>
        <mxCell id="7072GLtVEWYtxOqUc4yx-28" style="edgeStyle=orthogonalEdgeStyle;rounded=0;orthogonalLoop=1;jettySize=auto;html=1;entryX=0;entryY=0.5;entryDx=0;entryDy=0;" edge="1" parent="7072GLtVEWYtxOqUc4yx-1" source="7072GLtVEWYtxOqUc4yx-26" target="7072GLtVEWYtxOqUc4yx-4">
          <mxGeometry relative="1" as="geometry" />
        </mxCell>
        <mxCell id="7072GLtVEWYtxOqUc4yx-26" value="Snapshot&lt;div&gt;IAM&lt;/div&gt;" style="shape=umlActor;verticalLabelPosition=bottom;verticalAlign=top;html=1;outlineConnect=0;" vertex="1" parent="7072GLtVEWYtxOqUc4yx-1">
          <mxGeometry x="20" y="190" width="50" height="80" as="geometry" />
        </mxCell>
        <mxCell id="7072GLtVEWYtxOqUc4yx-6" value="Wiz Backend" style="swimlane;horizontal=0;whiteSpace=wrap;html=1;" vertex="1" parent="1">
          <mxGeometry x="-20" y="320" width="360" height="640" as="geometry" />
        </mxCell>
        <mxCell id="7072GLtVEWYtxOqUc4yx-18" style="edgeStyle=orthogonalEdgeStyle;rounded=0;orthogonalLoop=1;jettySize=auto;html=1;entryX=0;entryY=0.5;entryDx=0;entryDy=0;exitX=0.5;exitY=1;exitDx=0;exitDy=0;exitPerimeter=0;" edge="1" parent="7072GLtVEWYtxOqUc4yx-6" source="7072GLtVEWYtxOqUc4yx-7" target="7072GLtVEWYtxOqUc4yx-17">
          <mxGeometry relative="1" as="geometry">
            <mxPoint x="100" y="270" as="targetPoint" />
          </mxGeometry>
        </mxCell>
        <mxCell id="7072GLtVEWYtxOqUc4yx-7" value="S3&lt;div&gt;Workload volume list&lt;/div&gt;" style="shape=cylinder3;whiteSpace=wrap;html=1;boundedLbl=1;backgroundOutline=1;size=15;" vertex="1" parent="7072GLtVEWYtxOqUc4yx-6">
          <mxGeometry x="40" y="140" width="80" height="100" as="geometry" />
        </mxCell>
        <mxCell id="7072GLtVEWYtxOqUc4yx-15" style="edgeStyle=orthogonalEdgeStyle;rounded=0;orthogonalLoop=1;jettySize=auto;html=1;exitX=1;exitY=0.5;exitDx=0;exitDy=0;entryX=0.5;entryY=0;entryDx=0;entryDy=0;" edge="1" parent="7072GLtVEWYtxOqUc4yx-6" source="7072GLtVEWYtxOqUc4yx-8" target="7072GLtVEWYtxOqUc4yx-9">
          <mxGeometry relative="1" as="geometry" />
        </mxCell>
        <mxCell id="7072GLtVEWYtxOqUc4yx-8" value="Connector&lt;div&gt;Operator&lt;/div&gt;" style="rounded=0;whiteSpace=wrap;html=1;" vertex="1" parent="7072GLtVEWYtxOqUc4yx-6">
          <mxGeometry x="40" y="20" width="120" height="60" as="geometry" />
        </mxCell>
        <mxCell id="7072GLtVEWYtxOqUc4yx-9" value="Fetcher" style="rounded=0;whiteSpace=wrap;html=1;" vertex="1" parent="7072GLtVEWYtxOqUc4yx-6">
          <mxGeometry x="190" y="110" width="120" height="60" as="geometry" />
        </mxCell>
        <mxCell id="7072GLtVEWYtxOqUc4yx-33" style="edgeStyle=orthogonalEdgeStyle;rounded=0;orthogonalLoop=1;jettySize=auto;html=1;exitX=1;exitY=0.5;exitDx=0;exitDy=0;" edge="1" parent="7072GLtVEWYtxOqUc4yx-6" source="7072GLtVEWYtxOqUc4yx-10">
          <mxGeometry relative="1" as="geometry">
            <mxPoint x="580" y="570" as="targetPoint" />
          </mxGeometry>
        </mxCell>
        <mxCell id="7072GLtVEWYtxOqUc4yx-10" value="&lt;span style=&quot;color: rgba(0, 0, 0, 0); font-family: monospace; font-size: 0px; text-align: start; text-wrap-mode: nowrap;&quot;&gt;%3CmxGraphModel%3E%3Croot%3E%3CmxCell%20id%3D%220%22%2F%3E%3CmxCell%20id%3D%221%22%20parent%3D%220%22%2F%3E%3CmxCell%20id%3D%222%22%20value%3D%22Fetcher%22%20style%3D%22rounded%3D0%3BwhiteSpace%3Dwrap%3Bhtml%3D1%3B%22%20vertex%3D%221%22%20parent%3D%221%22%3E%3CmxGeometry%20x%3D%22210%22%20y%3D%22420%22%20width%3D%22120%22%20height%3D%2260%22%20as%3D%22geometry%22%2F%3E%3C%2FmxCell%3E%3C%2Froot%3E%3C%2FmxGraphModel%3E&lt;/span&gt;vminsight-ingestor" style="rounded=0;whiteSpace=wrap;html=1;" vertex="1" parent="7072GLtVEWYtxOqUc4yx-6">
          <mxGeometry x="190" y="540" width="120" height="60" as="geometry" />
        </mxCell>
        <mxCell id="7072GLtVEWYtxOqUc4yx-11" style="edgeStyle=orthogonalEdgeStyle;rounded=0;orthogonalLoop=1;jettySize=auto;html=1;exitX=0.5;exitY=1;exitDx=0;exitDy=0;entryX=0.575;entryY=0.917;entryDx=0;entryDy=0;entryPerimeter=0;" edge="1" parent="7072GLtVEWYtxOqUc4yx-6" source="7072GLtVEWYtxOqUc4yx-10" target="7072GLtVEWYtxOqUc4yx-10">
          <mxGeometry relative="1" as="geometry" />
        </mxCell>
        <mxCell id="7072GLtVEWYtxOqUc4yx-12" value="S3&lt;div&gt;Snapshots&lt;/div&gt;" style="shape=cylinder3;whiteSpace=wrap;html=1;boundedLbl=1;backgroundOutline=1;size=15;" vertex="1" parent="7072GLtVEWYtxOqUc4yx-6">
          <mxGeometry x="40" y="290" width="100" height="120" as="geometry" />
        </mxCell>
        <mxCell id="7072GLtVEWYtxOqUc4yx-16" style="edgeStyle=orthogonalEdgeStyle;rounded=0;orthogonalLoop=1;jettySize=auto;html=1;entryX=1;entryY=0.5;entryDx=0;entryDy=0;entryPerimeter=0;" edge="1" parent="7072GLtVEWYtxOqUc4yx-6" source="7072GLtVEWYtxOqUc4yx-9" target="7072GLtVEWYtxOqUc4yx-7">
          <mxGeometry relative="1" as="geometry" />
        </mxCell>
        <mxCell id="7072GLtVEWYtxOqUc4yx-17" value="&lt;span class=&quot;notion-enable-hover&quot; data-token-index=&quot;0&quot; style=&quot;&quot;&gt;diskanalyzer-coordinator&lt;/span&gt;" style="rounded=0;whiteSpace=wrap;html=1;" vertex="1" parent="7072GLtVEWYtxOqUc4yx-6">
          <mxGeometry x="190" y="240" width="120" height="60" as="geometry" />
        </mxCell>
        <mxCell id="7072GLtVEWYtxOqUc4yx-24" value="&lt;span class=&quot;notion-enable-hover&quot; data-token-index=&quot;0&quot; style=&quot;font-weight:600&quot;&gt;scansource-operator&lt;/span&gt;" style="rounded=0;whiteSpace=wrap;html=1;" vertex="1" parent="7072GLtVEWYtxOqUc4yx-6">
          <mxGeometry x="190" y="340" width="120" height="60" as="geometry" />
        </mxCell>
        <mxCell id="7072GLtVEWYtxOqUc4yx-29" style="edgeStyle=orthogonalEdgeStyle;rounded=0;orthogonalLoop=1;jettySize=auto;html=1;exitX=0;exitY=0.5;exitDx=0;exitDy=0;entryX=1.01;entryY=0.425;entryDx=0;entryDy=0;entryPerimeter=0;" edge="1" parent="7072GLtVEWYtxOqUc4yx-6" source="7072GLtVEWYtxOqUc4yx-24" target="7072GLtVEWYtxOqUc4yx-12">
          <mxGeometry relative="1" as="geometry" />
        </mxCell>
        <mxCell id="7072GLtVEWYtxOqUc4yx-32" style="edgeStyle=orthogonalEdgeStyle;rounded=0;orthogonalLoop=1;jettySize=auto;html=1;exitX=0.5;exitY=1;exitDx=0;exitDy=0;entryX=0.5;entryY=0;entryDx=0;entryDy=0;" edge="1" parent="7072GLtVEWYtxOqUc4yx-6" source="7072GLtVEWYtxOqUc4yx-30" target="7072GLtVEWYtxOqUc4yx-10">
          <mxGeometry relative="1" as="geometry" />
        </mxCell>
        <mxCell id="7072GLtVEWYtxOqUc4yx-30" value="&lt;span class=&quot;notion-enable-hover&quot; data-token-index=&quot;0&quot; style=&quot;&quot;&gt;diskanalyzer-coordinator&lt;/span&gt;" style="rounded=0;whiteSpace=wrap;html=1;" vertex="1" parent="7072GLtVEWYtxOqUc4yx-6">
          <mxGeometry x="190" y="440" width="120" height="60" as="geometry" />
        </mxCell>
        <mxCell id="7072GLtVEWYtxOqUc4yx-31" style="edgeStyle=orthogonalEdgeStyle;rounded=0;orthogonalLoop=1;jettySize=auto;html=1;exitX=0.5;exitY=1;exitDx=0;exitDy=0;exitPerimeter=0;entryX=0;entryY=0.5;entryDx=0;entryDy=0;" edge="1" parent="7072GLtVEWYtxOqUc4yx-6" source="7072GLtVEWYtxOqUc4yx-12" target="7072GLtVEWYtxOqUc4yx-30">
          <mxGeometry relative="1" as="geometry">
            <Array as="points">
              <mxPoint x="90" y="460" />
              <mxPoint x="160" y="460" />
              <mxPoint x="160" y="470" />
            </Array>
          </mxGeometry>
        </mxCell>
        <mxCell id="7072GLtVEWYtxOqUc4yx-13" style="edgeStyle=orthogonalEdgeStyle;rounded=0;orthogonalLoop=1;jettySize=auto;html=1;exitX=1;exitY=0.5;exitDx=0;exitDy=0;" edge="1" parent="1" source="7072GLtVEWYtxOqUc4yx-35" target="7072GLtVEWYtxOqUc4yx-3">
          <mxGeometry relative="1" as="geometry">
            <mxPoint x="540" y="540" as="targetPoint" />
            <Array as="points">
              <mxPoint x="541" y="460" />
              <mxPoint x="541" y="400" />
            </Array>
          </mxGeometry>
        </mxCell>
        <mxCell id="7072GLtVEWYtxOqUc4yx-19" value="Wiz Dashboard" style="swimlane;whiteSpace=wrap;html=1;" vertex="1" parent="1">
          <mxGeometry x="560" y="760" width="240" height="200" as="geometry" />
        </mxCell>
        <mxCell id="7072GLtVEWYtxOqUc4yx-27" style="edgeStyle=orthogonalEdgeStyle;rounded=0;orthogonalLoop=1;jettySize=auto;html=1;entryX=0;entryY=0.3333333333333333;entryDx=0;entryDy=0;entryPerimeter=0;" edge="1" parent="1" source="7072GLtVEWYtxOqUc4yx-24" target="7072GLtVEWYtxOqUc4yx-26">
          <mxGeometry relative="1" as="geometry">
            <Array as="points">
              <mxPoint x="510" y="690" />
              <mxPoint x="510" y="537" />
            </Array>
          </mxGeometry>
        </mxCell>
        <mxCell id="7072GLtVEWYtxOqUc4yx-36" value="" style="edgeStyle=orthogonalEdgeStyle;rounded=0;orthogonalLoop=1;jettySize=auto;html=1;exitX=1;exitY=0.5;exitDx=0;exitDy=0;" edge="1" parent="1" source="7072GLtVEWYtxOqUc4yx-9" target="7072GLtVEWYtxOqUc4yx-35">
          <mxGeometry relative="1" as="geometry">
            <mxPoint x="290" y="460" as="sourcePoint" />
            <mxPoint x="580" y="400" as="targetPoint" />
            <Array as="points" />
          </mxGeometry>
        </mxCell>
        <mxCell id="7072GLtVEWYtxOqUc4yx-35" value="Fetch Workload volume list" style="shape=note;whiteSpace=wrap;html=1;backgroundOutline=1;darkOpacity=0.05;fillStyle=solid;direction=west;gradientDirection=north;shadow=1;size=20;pointerEvents=1;strokeColor=none;fillColor=none;" vertex="1" parent="1">
          <mxGeometry x="350" y="420" width="170" height="40" as="geometry" />
        </mxCell>
        <mxCell id="7072GLtVEWYtxOqUc4yx-37" value="Create disk snapshot" style="shape=note;whiteSpace=wrap;html=1;backgroundOutline=1;darkOpacity=0.05;fillStyle=solid;direction=west;gradientDirection=north;shadow=1;size=20;pointerEvents=1;strokeColor=none;fillColor=none;" vertex="1" parent="1">
          <mxGeometry x="330" y="650" width="170" height="40" as="geometry" />
        </mxCell>
        <mxCell id="7072GLtVEWYtxOqUc4yx-39" value="Publish refined data + findings" style="shape=note;whiteSpace=wrap;html=1;backgroundOutline=1;darkOpacity=0.05;fillStyle=solid;direction=west;gradientDirection=north;shadow=1;size=20;pointerEvents=1;strokeColor=none;fillColor=none;" vertex="1" parent="1">
          <mxGeometry x="360" y="860" width="170" height="40" as="geometry" />
        </mxCell>
      </root>
    </mxGraphModel>
  </diagram>
</mxfile>
